Coordinates
version=1
nRows=7
nColumns=40
inDegrees=yes

Units are S.I. units (second, meters, Newtons, ...)
Angles are in degrees.

endheader
time	pelvis_tilt	pelvis_list	pelvis_rotation	pelvis_tx	pelvis_ty	pelvis_tz	hip_flexion_r	hip_adduction_r	hip_rotation_r	knee_angle_r	knee_angle_r_beta	ankle_angle_r	subtalar_angle_r	mtp_angle_r	hip_flexion_l	hip_adduction_l	hip_rotation_l	knee_angle_l	knee_angle_l_beta	ankle_angle_l	subtalar_angle_l	mtp_angle_l	lumbar_extension	lumbar_bending	lumbar_rotation	arm_flex_r	arm_add_r	arm_rot_r	elbow_flex_r	pro_sup_r	wrist_flex_r	wrist_dev_r	arm_flex_l	arm_add_l	arm_rot_l	elbow_flex_l	pro_sup_l	wrist_flex_l	wrist_dev_l
     10.46000000	     -4.59415032	     -3.56412521	     -0.93159226	      0.76216086	      0.92599697	      0.45787226	     24.71432880	     -4.92917010	     -5.93263432	     66.49012614	     66.49012614	      2.27847551	    -13.41263822	     -2.32172646	     20.22710452	     -5.07810315	     -7.01548992	     25.24966387	     25.24966387	     12.32176808	    -10.19046726	     -0.00544170	     -9.57593214	      5.03530548	      2.81761615	     10.45796081	    -13.86544260	     -1.60849953	     39.77957194	     45.82355024	      0.00000000	      0.00000000	      7.58723562	    -14.21301977	     -3.30077648	     49.97032219	     46.15089761	      0.00000000	      0.00000000
     10.47292857	     -4.50921893	     -3.55922815	     -1.22397806	      0.76151030	      0.92725413	      0.45765391	     26.15364618	     -4.73878992	     -5.46509593	     66.81277449	     66.81277449	      2.22309454	    -13.35811974	     -2.33591010	     19.23092496	     -5.02675442	     -7.22326183	     24.48661229	     24.48661229	     12.47493544	    -10.21830682	      0.07972530	     -9.88705314	      4.99631360	      2.78083617	      8.67201133	    -13.68585396	     -1.34747685	     38.39328430	     45.85009604	      0.00000000	      0.00000000	      8.88133788	    -14.47778236	     -3.46504154	     50.60130080	     46.19140833	      0.00000000	      0.00000000
     10.48585714	     -4.51408664	     -3.61796496	     -1.49477715	      0.76080852	      0.92816856	      0.45738514	     27.64281864	     -4.50617455	     -5.10368964	     67.01044526	     67.01044526	      2.19537412	    -13.24037682	     -2.25817139	     18.46329420	     -5.02919018	     -7.30906852	     23.94810132	     23.94810132	     12.65188797	    -10.36527634	     -0.00249263	    -10.08226104	      5.07936098	      2.82059344	      6.94045891	    -13.55567380	     -1.01890759	     36.68254103	     45.88587867	      0.00000000	      0.00000000	     10.13745804	    -14.69188147	     -3.52879003	     51.42722235	     46.22737416	      0.00000000	      0.00000000
     10.49878571	     -4.51722497	     -3.76841524	     -1.70419883	      0.76013636	      0.92895320	      0.45720023	     28.98253883	     -4.19496022	     -4.88031453	     66.90911982	     66.90911982	      2.16043261	    -13.05326732	     -2.25748641	     17.80276642	     -5.15716455	     -7.38834278	     23.59553315	     23.59553315	     12.92999405	    -10.37608145	     -0.04192024	    -10.26683460	      5.31305543	      2.21209359	      5.38368629	    -13.25520407	     -0.87987422	     35.91993220	     45.89625374	      0.00000000	      0.00000000	     11.04906368	    -15.30926420	     -3.71302195	     51.86951207	     46.25813946	      0.00000000	      0.00000000
     10.51171429	     -4.53179278	     -3.73908421	     -2.01099827	      0.75964527	      0.92981084	      0.45715335	     30.25643713	     -3.98575061	     -4.50062246	     66.50666540	     66.50666540	      2.31503694	    -12.89832640	     -1.38782835	     16.90429002	     -5.03969320	     -7.47604600	     22.76611184	     22.76611184	     12.70397097	    -10.74332655	     -0.72005908	    -10.41210115	      5.25133937	      2.38932548	      4.46111068	    -13.04432557	     -0.09255069	     31.95830271	     46.00190656	      0.00000000	      0.00000000	     11.95827274	    -15.62744807	     -3.20861084	     53.68522939	     46.28869567	      0.00000000	      0.00000000
     10.52464286	     -4.58223687	     -3.86030850	     -2.22056809	      0.75918354	      0.93039970	      0.45719346	     31.34231713	     -3.70428098	     -4.40287692	     65.60924512	     65.60924512	      2.31133834	    -12.72777753	     -1.30062611	     16.28103286	     -5.14009080	     -7.55611590	     22.38774491	     22.38774491	     12.95906353	    -10.73824988	     -0.73433879	    -10.51366609	      5.43562686	      1.93952518	      2.89744429	    -12.82742686	      0.00067734	     31.29178467	     46.01026558	      0.00000000	      0.00000000	     12.79520918	    -16.17203991	     -3.45958598	     54.21103871	     46.32664562	      0.00000000	      0.00000000
     10.53757143	     -4.52767090	     -3.91478248	     -2.50207056	      0.75890386	      0.93119278	      0.45734787	     32.13947632	     -3.41235903	     -4.18534713	     64.21696880	     64.21696880	      2.33245435	    -12.57746501	     -1.10992761	     15.36690086	     -5.15625310	     -7.75652947	     21.70265476	     21.70265476	     13.13799415	    -10.72293893	     -0.74924359	    -10.77480804	      5.51990396	      2.37636831	      1.05630806	    -12.85005711	      0.18728508	     30.10174029	     46.03276812	      0.00000000	      0.00000000	     13.86320519	    -16.02965057	     -3.69455971	     55.76704688	     46.38375148	      0.00000000	      0.00000000
